<svg xmlns="http://www.w3.org/2000/svg" xmlns:xlink="http://www.w3.org/1999/xlink" width="80" zoomAndPan="magnify" viewBox="0 0 60 60" height="80" preserveAspectRatio="xMidYMid meet" version="1.0"><defs><g/><clipPath id="d66ea66381"><path d="M 9 19 L 41.675781 19 L 41.675781 42.691406 L 9 42.691406 Z M 9 19 " clip-rule="nonzero"/></clipPath><clipPath id="c5aa5eeaeb"><path d="M 2.175781 0.300781 L 41.675781 0.300781 L 41.675781 42 L 2.175781 42 Z M 2.175781 0.300781 " clip-rule="nonzero"/></clipPath><clipPath id="e204d601aa"><path d="M 0.398438 47 L 44.800781 47 L 44.800781 58.039062 L 0.398438 58.039062 Z M 0.398438 47 " clip-rule="nonzero"/></clipPath><clipPath id="ecf02b134f"><rect x="0" width="45" y="0" height="12"/></clipPath><clipPath id="3d2b2bf6d4"><rect x="0" width="45" y="0" height="59"/></clipPath></defs><g transform="matrix(1, 0, 0, 1, 8, 1)"><g clip-path="url(#3d2b2bf6d4)"><g clip-path="url(#d66ea66381)"><path fill="#f7f7f7" d="M 9.636719 41.964844 L 39.550781 19.632812 L 41.710938 42.371094 Z M 9.636719 41.964844 " fill-opacity="1" fill-rule="evenodd"/></g><g clip-path="url(#c5aa5eeaeb)"><path fill="#f7f7f7" d="M 8.710938 41.964844 L 13.953125 25.546875 L 23.410156 28.300781 L 41.300781 0.359375 L 4.390625 15.449219 L 2.234375 41.757812 " fill-opacity="1" fill-rule="evenodd"/></g><g clip-path="url(#e204d601aa)"><g transform="matrix(1, 0, 0, 1, 0, 47)"><g clip-path="url(#ecf02b134f)"><g fill="#f7f7f7" fill-opacity="1"><g transform="translate(0.471398, 8.791707)"><g><path d="M 0.578125 -5.828125 L 3.328125 -5.828125 C 3.921875 -5.828125 4.367188 -5.679688 4.671875 -5.390625 C 4.972656 -5.109375 5.125 -4.710938 5.125 -4.203125 C 5.125 -3.910156 5.050781 -3.65625 4.90625 -3.4375 C 4.757812 -3.21875 4.582031 -3.054688 4.375 -2.953125 C 4.601562 -2.847656 4.796875 -2.679688 4.953125 -2.453125 C 5.117188 -2.234375 5.203125 -1.957031 5.203125 -1.625 C 5.203125 -1.113281 5.050781 -0.710938 4.75 -0.421875 C 4.445312 -0.140625 4.003906 0 3.421875 0 L 0.578125 0 Z M 3.25 -1.078125 C 3.476562 -1.078125 3.648438 -1.132812 3.765625 -1.25 C 3.890625 -1.375 3.953125 -1.539062 3.953125 -1.75 C 3.953125 -1.957031 3.890625 -2.117188 3.765625 -2.234375 C 3.648438 -2.359375 3.476562 -2.421875 3.25 -2.421875 L 1.828125 -2.421875 L 1.828125 -1.078125 Z M 3.171875 -3.421875 C 3.398438 -3.421875 3.570312 -3.476562 3.6875 -3.59375 C 3.8125 -3.707031 3.875 -3.867188 3.875 -4.078125 C 3.875 -4.285156 3.8125 -4.445312 3.6875 -4.5625 C 3.570312 -4.6875 3.398438 -4.75 3.171875 -4.75 L 1.828125 -4.75 L 1.828125 -3.421875 Z M 3.171875 -3.421875 "/></g></g></g><g fill="#f7f7f7" fill-opacity="1"><g transform="translate(7.161396, 8.791707)"><g><path d="M 3.078125 0.078125 C 2.660156 0.078125 2.28125 0.015625 1.9375 -0.109375 C 1.601562 -0.242188 1.316406 -0.4375 1.078125 -0.6875 C 0.835938 -0.945312 0.648438 -1.265625 0.515625 -1.640625 C 0.390625 -2.015625 0.328125 -2.441406 0.328125 -2.921875 C 0.328125 -3.390625 0.390625 -3.8125 0.515625 -4.1875 C 0.648438 -4.5625 0.835938 -4.875 1.078125 -5.125 C 1.316406 -5.382812 1.601562 -5.578125 1.9375 -5.703125 C 2.28125 -5.835938 2.660156 -5.90625 3.078125 -5.90625 C 3.492188 -5.90625 3.867188 -5.835938 4.203125 -5.703125 C 4.546875 -5.578125 4.835938 -5.382812 5.078125 -5.125 C 5.316406 -4.875 5.5 -4.5625 5.625 -4.1875 C 5.757812 -3.8125 5.828125 -3.390625 5.828125 -2.921875 C 5.828125 -2.441406 5.757812 -2.015625 5.625 -1.640625 C 5.5 -1.265625 5.316406 -0.945312 5.078125 -0.6875 C 4.835938 -0.4375 4.546875 -0.242188 4.203125 -0.109375 C 3.867188 0.015625 3.492188 0.078125 3.078125 0.078125 Z M 3.078125 -1.046875 C 3.296875 -1.046875 3.492188 -1.082031 3.671875 -1.15625 C 3.859375 -1.238281 4.019531 -1.351562 4.15625 -1.5 C 4.289062 -1.65625 4.394531 -1.851562 4.46875 -2.09375 C 4.539062 -2.332031 4.578125 -2.609375 4.578125 -2.921875 C 4.578125 -3.222656 4.539062 -3.492188 4.46875 -3.734375 C 4.394531 -3.972656 4.289062 -4.171875 4.15625 -4.328125 C 4.019531 -4.484375 3.859375 -4.597656 3.671875 -4.671875 C 3.492188 -4.742188 3.296875 -4.78125 3.078125 -4.78125 C 2.859375 -4.78125 2.65625 -4.742188 2.46875 -4.671875 C 2.289062 -4.597656 2.132812 -4.484375 2 -4.328125 C 1.875 -4.171875 1.769531 -3.972656 1.6875 -3.734375 C 1.613281 -3.492188 1.578125 -3.222656 1.578125 -2.921875 C 1.578125 -2.609375 1.613281 -2.332031 1.6875 -2.09375 C 1.769531 -1.851562 1.875 -1.65625 2 -1.5 C 2.132812 -1.351562 2.289062 -1.238281 2.46875 -1.15625 C 2.65625 -1.082031 2.859375 -1.046875 3.078125 -1.046875 Z M 3.078125 -1.046875 "/></g></g></g><g fill="#f7f7f7" fill-opacity="1"><g transform="translate(14.476235, 8.791707)"><g><path d="M 0.578125 -5.828125 L 1.828125 -5.828125 L 1.828125 -1.125 L 4.5 -1.125 L 4.5 0 L 0.578125 0 Z M 0.578125 -5.828125 "/></g></g></g><g fill="#f7f7f7" fill-opacity="1"><g transform="translate(20.291452, 8.791707)"><g><path d="M 0.578125 -5.828125 L 2.828125 -5.828125 C 3.234375 -5.828125 3.597656 -5.757812 3.921875 -5.625 C 4.253906 -5.5 4.535156 -5.3125 4.765625 -5.0625 C 5.003906 -4.8125 5.1875 -4.503906 5.3125 -4.140625 C 5.4375 -3.773438 5.5 -3.367188 5.5 -2.921875 C 5.5 -2.453125 5.4375 -2.035156 5.3125 -1.671875 C 5.1875 -1.316406 5.003906 -1.015625 4.765625 -0.765625 C 4.535156 -0.515625 4.253906 -0.320312 3.921875 -0.1875 C 3.597656 -0.0625 3.234375 0 2.828125 0 L 0.578125 0 Z M 2.796875 -1.125 C 2.992188 -1.125 3.175781 -1.160156 3.34375 -1.234375 C 3.519531 -1.304688 3.675781 -1.414062 3.8125 -1.5625 C 3.945312 -1.71875 4.050781 -1.90625 4.125 -2.125 C 4.207031 -2.351562 4.25 -2.617188 4.25 -2.921875 C 4.25 -3.210938 4.207031 -3.472656 4.125 -3.703125 C 4.050781 -3.929688 3.945312 -4.117188 3.8125 -4.265625 C 3.675781 -4.410156 3.519531 -4.519531 3.34375 -4.59375 C 3.175781 -4.664062 2.992188 -4.703125 2.796875 -4.703125 L 1.828125 -4.703125 L 1.828125 -1.125 Z M 2.796875 -1.125 "/></g></g></g><g fill="#f7f7f7" fill-opacity="1"><g transform="translate(27.273041, 8.791707)"><g><path d="M 0.578125 -5.828125 L 3 -5.828125 C 3.300781 -5.828125 3.578125 -5.773438 3.828125 -5.671875 C 4.078125 -5.578125 4.289062 -5.441406 4.46875 -5.265625 C 4.644531 -5.085938 4.78125 -4.875 4.875 -4.625 C 4.976562 -4.382812 5.03125 -4.117188 5.03125 -3.828125 C 5.03125 -3.535156 4.976562 -3.265625 4.875 -3.015625 C 4.78125 -2.773438 4.644531 -2.566406 4.46875 -2.390625 C 4.289062 -2.210938 4.078125 -2.070312 3.828125 -1.96875 C 3.578125 -1.875 3.300781 -1.828125 3 -1.828125 L 1.828125 -1.828125 L 1.828125 0 L 0.578125 0 Z M 2.875 -2.953125 C 3.164062 -2.953125 3.390625 -3.03125 3.546875 -3.1875 C 3.710938 -3.34375 3.796875 -3.554688 3.796875 -3.828125 C 3.796875 -4.097656 3.710938 -4.3125 3.546875 -4.46875 C 3.390625 -4.625 3.164062 -4.703125 2.875 -4.703125 L 1.828125 -4.703125 L 1.828125 -2.953125 Z M 2.875 -2.953125 "/></g></g></g><g fill="#f7f7f7" fill-opacity="1"><g transform="translate(33.796413, 8.791707)"><g><path d="M 0.578125 -5.828125 L 1.828125 -5.828125 L 1.828125 0 L 0.578125 0 Z M 0.578125 -5.828125 "/></g></g></g><g fill="#f7f7f7" fill-opacity="1"><g transform="translate(37.3622, 8.791707)"><g><path d="M 3.71875 0.03125 C 3.613281 0.0390625 3.507812 0.0507812 3.40625 0.0625 C 3.300781 0.0703125 3.191406 0.078125 3.078125 0.078125 C 2.660156 0.078125 2.28125 0.015625 1.9375 -0.109375 C 1.601562 -0.242188 1.316406 -0.4375 1.078125 -0.6875 C 0.835938 -0.945312 0.648438 -1.265625 0.515625 -1.640625 C 0.390625 -2.015625 0.328125 -2.441406 0.328125 -2.921875 C 0.328125 -3.390625 0.390625 -3.8125 0.515625 -4.1875 C 0.648438 -4.5625 0.835938 -4.875 1.078125 -5.125 C 1.316406 -5.382812 1.601562 -5.578125 1.9375 -5.703125 C 2.28125 -5.835938 2.660156 -5.90625 3.078125 -5.90625 C 3.492188 -5.90625 3.867188 -5.835938 4.203125 -5.703125 C 4.546875 -5.578125 4.835938 -5.382812 5.078125 -5.125 C 5.316406 -4.875 5.5 -4.5625 5.625 -4.1875 C 5.757812 -3.8125 5.828125 -3.390625 5.828125 -2.921875 C 5.828125 -2.335938 5.734375 -1.832031 5.546875 -1.40625 C 5.359375 -0.988281 5.09375 -0.65625 4.75 -0.40625 L 5.578125 0.828125 L 4.25 0.828125 Z M 2.453125 -1.875 L 3.796875 -1.875 L 4.078125 -1.421875 C 4.242188 -1.578125 4.367188 -1.78125 4.453125 -2.03125 C 4.535156 -2.28125 4.578125 -2.578125 4.578125 -2.921875 C 4.578125 -3.222656 4.539062 -3.492188 4.46875 -3.734375 C 4.394531 -3.972656 4.289062 -4.171875 4.15625 -4.328125 C 4.019531 -4.484375 3.859375 -4.597656 3.671875 -4.671875 C 3.492188 -4.742188 3.296875 -4.78125 3.078125 -4.78125 C 2.859375 -4.78125 2.65625 -4.742188 2.46875 -4.671875 C 2.289062 -4.597656 2.132812 -4.484375 2 -4.328125 C 1.875 -4.171875 1.769531 -3.972656 1.6875 -3.734375 C 1.613281 -3.492188 1.578125 -3.222656 1.578125 -2.921875 C 1.578125 -2.304688 1.707031 -1.84375 1.96875 -1.53125 C 2.238281 -1.21875 2.582031 -1.054688 3 -1.046875 Z M 2.453125 -1.875 "/></g></g></g></g></g></g></g></g></svg>