<svg xmlns="http://www.w3.org/2000/svg" xmlns:xlink="http://www.w3.org/1999/xlink" width="220" height="326" viewBox="80 27 220 326" preserveAspectRatio="xMidYMid meet" version="1.0"><defs><g/><clipPath id="b865dd1c28"><path d="M 127 131 L 283.800781 131 L 283.800781 243 L 127 243 Z M 127 131 " clip-rule="nonzero"/></clipPath><clipPath id="2cabc3f8cd"><path d="M 91.050781 37.5 L 282 37.5 L 282 241 L 91.050781 241 Z M 91.050781 37.5 " clip-rule="nonzero"/></clipPath><clipPath id="5aff310b68"><rect x="0" width="217" y="0" height="52"/></clipPath></defs><g clip-path="url(#b865dd1c28)"><path fill="#f7f7f7" d="M 127.347656 240.238281 L 272.933594 131.558594 L 283.441406 242.222656 Z M 127.347656 240.238281 " fill-opacity="1" fill-rule="evenodd"/></g><g clip-path="url(#2cabc3f8cd)"><path fill="#f7f7f7" d="M 122.847656 240.238281 L 148.359375 160.339844 L 194.386719 173.738281 L 281.441406 37.765625 L 101.832031 111.210938 L 91.328125 239.246094 " fill-opacity="1" fill-rule="evenodd"/></g><g transform="matrix(1, 0, 0, 1, 82, 266)"><g clip-path="url(#5aff310b68)"><g fill="#f7f7f7" fill-opacity="1"><g transform="translate(0.753695, 41.494421)"><g><path d="M 2.84375 -28.375 L 16.21875 -28.375 C 19.082031 -28.375 21.25 -27.671875 22.71875 -26.265625 C 24.1875 -24.859375 24.921875 -22.925781 24.921875 -20.46875 C 24.921875 -19.03125 24.566406 -17.785156 23.859375 -16.734375 C 23.160156 -15.679688 22.300781 -14.898438 21.28125 -14.390625 C 22.414062 -13.878906 23.375 -13.070312 24.15625 -11.96875 C 24.9375 -10.875 25.328125 -9.519531 25.328125 -7.90625 C 25.328125 -5.445312 24.59375 -3.515625 23.125 -2.109375 C 21.65625 -0.703125 19.488281 0 16.625 0 L 2.84375 0 Z M 15.8125 -5.265625 C 16.945312 -5.265625 17.800781 -5.546875 18.375 -6.109375 C 18.957031 -6.679688 19.25 -7.484375 19.25 -8.515625 C 19.25 -9.535156 18.957031 -10.328125 18.375 -10.890625 C 17.800781 -11.460938 16.945312 -11.75 15.8125 -11.75 L 8.921875 -11.75 L 8.921875 -5.265625 Z M 15.40625 -16.625 C 16.539062 -16.625 17.394531 -16.90625 17.96875 -17.46875 C 18.550781 -18.03125 18.84375 -18.828125 18.84375 -19.859375 C 18.84375 -20.890625 18.550781 -21.6875 17.96875 -22.25 C 17.394531 -22.820312 16.539062 -23.109375 15.40625 -23.109375 L 8.921875 -23.109375 L 8.921875 -16.625 Z M 15.40625 -16.625 "/></g></g></g><g fill="#f7f7f7" fill-opacity="1"><g transform="translate(33.303537, 41.494421)"><g><path d="M 15 0.40625 C 12.96875 0.40625 11.128906 0.0820312 9.484375 -0.5625 C 7.835938 -1.21875 6.429688 -2.164062 5.265625 -3.40625 C 4.109375 -4.644531 3.210938 -6.171875 2.578125 -7.984375 C 1.941406 -9.796875 1.625 -11.863281 1.625 -14.1875 C 1.625 -16.507812 1.941406 -18.578125 2.578125 -20.390625 C 3.210938 -22.203125 4.109375 -23.726562 5.265625 -24.96875 C 6.429688 -26.207031 7.835938 -27.148438 9.484375 -27.796875 C 11.128906 -28.453125 12.96875 -28.78125 15 -28.78125 C 17.019531 -28.78125 18.851562 -28.453125 20.5 -27.796875 C 22.15625 -27.148438 23.5625 -26.207031 24.71875 -24.96875 C 25.882812 -23.726562 26.785156 -22.203125 27.421875 -20.390625 C 28.054688 -18.578125 28.375 -16.507812 28.375 -14.1875 C 28.375 -11.863281 28.054688 -9.796875 27.421875 -7.984375 C 26.785156 -6.171875 25.882812 -4.644531 24.71875 -3.40625 C 23.5625 -2.164062 22.15625 -1.21875 20.5 -0.5625 C 18.851562 0.0820312 17.019531 0.40625 15 0.40625 Z M 15 -5.0625 C 16.050781 -5.0625 17.019531 -5.25 17.90625 -5.625 C 18.800781 -6.007812 19.570312 -6.578125 20.21875 -7.328125 C 20.875 -8.085938 21.382812 -9.039062 21.75 -10.1875 C 22.113281 -11.34375 22.296875 -12.675781 22.296875 -14.1875 C 22.296875 -15.695312 22.113281 -17.023438 21.75 -18.171875 C 21.382812 -19.328125 20.875 -20.28125 20.21875 -21.03125 C 19.570312 -21.789062 18.800781 -22.359375 17.90625 -22.734375 C 17.019531 -23.117188 16.050781 -23.3125 15 -23.3125 C 13.945312 -23.3125 12.972656 -23.117188 12.078125 -22.734375 C 11.179688 -22.359375 10.410156 -21.789062 9.765625 -21.03125 C 9.117188 -20.28125 8.613281 -19.328125 8.25 -18.171875 C 7.882812 -17.023438 7.703125 -15.695312 7.703125 -14.1875 C 7.703125 -12.675781 7.882812 -11.34375 8.25 -10.1875 C 8.613281 -9.039062 9.117188 -8.085938 9.765625 -7.328125 C 10.410156 -6.578125 11.179688 -6.007812 12.078125 -5.625 C 12.972656 -5.25 13.945312 -5.0625 15 -5.0625 Z M 15 -5.0625 "/></g></g></g><g fill="#f7f7f7" fill-opacity="1"><g transform="translate(68.893511, 41.494421)"><g><path d="M 2.84375 -28.375 L 8.921875 -28.375 L 8.921875 -5.46875 L 21.890625 -5.46875 L 21.890625 0 L 2.84375 0 Z M 2.84375 -28.375 "/></g></g></g><g fill="#f7f7f7" fill-opacity="1"><g transform="translate(97.187153, 41.494421)"><g><path d="M 2.84375 -28.375 L 13.78125 -28.375 C 15.75 -28.375 17.53125 -28.046875 19.125 -27.390625 C 20.71875 -26.742188 22.082031 -25.8125 23.21875 -24.59375 C 24.351562 -23.382812 25.222656 -21.898438 25.828125 -20.140625 C 26.441406 -18.390625 26.75 -16.40625 26.75 -14.1875 C 26.75 -11.945312 26.441406 -9.945312 25.828125 -8.1875 C 25.222656 -6.425781 24.351562 -4.9375 23.21875 -3.71875 C 22.082031 -2.507812 20.71875 -1.585938 19.125 -0.953125 C 17.53125 -0.316406 15.75 0 13.78125 0 L 2.84375 0 Z M 13.578125 -5.46875 C 14.546875 -5.46875 15.457031 -5.644531 16.3125 -6 C 17.164062 -6.351562 17.914062 -6.894531 18.5625 -7.625 C 19.207031 -8.351562 19.71875 -9.265625 20.09375 -10.359375 C 20.476562 -11.453125 20.671875 -12.726562 20.671875 -14.1875 C 20.671875 -15.644531 20.476562 -16.921875 20.09375 -18.015625 C 19.71875 -19.109375 19.207031 -20.019531 18.5625 -20.75 C 17.914062 -21.476562 17.164062 -22.019531 16.3125 -22.375 C 15.457031 -22.726562 14.546875 -22.90625 13.578125 -22.90625 L 8.921875 -22.90625 L 8.921875 -5.46875 Z M 13.578125 -5.46875 "/></g></g></g><g fill="#f7f7f7" fill-opacity="1"><g transform="translate(131.155718, 41.494421)"><g><path d="M 2.84375 -28.375 L 14.59375 -28.375 C 16.050781 -28.375 17.394531 -28.128906 18.625 -27.640625 C 19.851562 -27.148438 20.898438 -26.476562 21.765625 -25.625 C 22.628906 -24.78125 23.300781 -23.753906 23.78125 -22.546875 C 24.269531 -21.347656 24.515625 -20.046875 24.515625 -18.640625 C 24.515625 -17.210938 24.269531 -15.898438 23.78125 -14.703125 C 23.300781 -13.515625 22.628906 -12.492188 21.765625 -11.640625 C 20.898438 -10.796875 19.851562 -10.128906 18.625 -9.640625 C 17.394531 -9.160156 16.050781 -8.921875 14.59375 -8.921875 L 8.921875 -8.921875 L 8.921875 0 L 2.84375 0 Z M 13.984375 -14.390625 C 15.410156 -14.390625 16.507812 -14.765625 17.28125 -15.515625 C 18.050781 -16.273438 18.4375 -17.316406 18.4375 -18.640625 C 18.4375 -19.960938 18.050781 -21.003906 17.28125 -21.765625 C 16.507812 -22.523438 15.410156 -22.90625 13.984375 -22.90625 L 8.921875 -22.90625 L 8.921875 -14.390625 Z M 13.984375 -14.390625 "/></g></g></g><g fill="#f7f7f7" fill-opacity="1"><g transform="translate(162.894848, 41.494421)"><g><path d="M 2.84375 -28.375 L 8.921875 -28.375 L 8.921875 0 L 2.84375 0 Z M 2.84375 -28.375 "/></g></g></g><g fill="#f7f7f7" fill-opacity="1"><g transform="translate(180.244001, 41.494421)"><g><path d="M 18.078125 0.125 C 17.585938 0.207031 17.085938 0.273438 16.578125 0.328125 C 16.066406 0.378906 15.539062 0.40625 15 0.40625 C 12.96875 0.40625 11.128906 0.0820312 9.484375 -0.5625 C 7.835938 -1.21875 6.429688 -2.164062 5.265625 -3.40625 C 4.109375 -4.644531 3.210938 -6.171875 2.578125 -7.984375 C 1.941406 -9.796875 1.625 -11.863281 1.625 -14.1875 C 1.625 -16.507812 1.941406 -18.578125 2.578125 -20.390625 C 3.210938 -22.203125 4.109375 -23.726562 5.265625 -24.96875 C 6.429688 -26.207031 7.835938 -27.148438 9.484375 -27.796875 C 11.128906 -28.453125 12.96875 -28.78125 15 -28.78125 C 17.019531 -28.78125 18.851562 -28.453125 20.5 -27.796875 C 22.15625 -27.148438 23.5625 -26.207031 24.71875 -24.96875 C 25.882812 -23.726562 26.785156 -22.203125 27.421875 -20.390625 C 28.054688 -18.578125 28.375 -16.507812 28.375 -14.1875 C 28.375 -11.351562 27.910156 -8.914062 26.984375 -6.875 C 26.066406 -4.832031 24.785156 -3.203125 23.140625 -1.984375 L 27.15625 4.046875 L 20.671875 4.046875 Z M 11.953125 -9.125 L 18.4375 -9.125 L 19.859375 -6.9375 C 20.640625 -7.6875 21.238281 -8.660156 21.65625 -9.859375 C 22.082031 -11.066406 22.296875 -12.507812 22.296875 -14.1875 C 22.296875 -15.695312 22.113281 -17.023438 21.75 -18.171875 C 21.382812 -19.328125 20.875 -20.28125 20.21875 -21.03125 C 19.570312 -21.789062 18.800781 -22.359375 17.90625 -22.734375 C 17.019531 -23.117188 16.050781 -23.3125 15 -23.3125 C 13.945312 -23.3125 12.972656 -23.117188 12.078125 -22.734375 C 11.179688 -22.359375 10.410156 -21.789062 9.765625 -21.03125 C 9.117188 -20.28125 8.613281 -19.328125 8.25 -18.171875 C 7.882812 -17.023438 7.703125 -15.695312 7.703125 -14.1875 C 7.703125 -11.21875 8.34375 -8.972656 9.625 -7.453125 C 10.90625 -5.941406 12.570312 -5.144531 14.625 -5.0625 Z M 11.953125 -9.125 "/></g></g></g></g></g><g fill="#c45a1a" fill-opacity="1"><g transform="translate(82.394603, 333.251609)"><g><path d="M 1.21875 -12.265625 L 5.078125 -12.265625 L 7.96875 -3.765625 L 8.0625 -3.765625 L 10.953125 -12.265625 L 14.796875 -12.265625 L 14.796875 0 L 12.171875 0 L 12.171875 -8.671875 L 12.078125 -8.671875 L 9.109375 0 L 6.921875 0 L 3.9375 -8.671875 L 3.859375 -8.671875 L 3.859375 0 L 1.21875 0 Z M 1.21875 -12.265625 "/></g></g></g><g fill="#c45a1a" fill-opacity="1"><g transform="translate(100.113363, 333.251609)"><g><path d="M 4.296875 -12.265625 L 7.53125 -12.265625 L 11.90625 0 L 9.203125 0 L 8.40625 -2.28125 L 3.421875 -2.28125 L 2.625 0 L -0.09375 0 Z M 7.546875 -4.640625 L 5.953125 -9.28125 L 5.875 -9.28125 L 4.28125 -4.640625 Z M 7.546875 -4.640625 "/></g></g></g><g fill="#c45a1a" fill-opacity="1"><g transform="translate(113.630243, 333.251609)"><g><path d="M 1.21875 -12.265625 L 3.859375 -12.265625 L 3.859375 -6.828125 L 8.234375 -12.265625 L 11.296875 -12.265625 L 6.390625 -6.21875 L 11.5625 0 L 8.5 0 L 3.859375 -5.609375 L 3.859375 0 L 1.21875 0 Z M 1.21875 -12.265625 "/></g></g></g><g fill="#c45a1a" fill-opacity="1"><g transform="translate(126.534348, 333.251609)"><g><path d="M 1.21875 -12.265625 L 9.546875 -12.265625 L 9.546875 -9.890625 L 3.859375 -9.890625 L 3.859375 -7.265625 L 9.203125 -7.265625 L 9.203125 -5.078125 L 3.859375 -5.078125 L 3.859375 -2.359375 L 9.71875 -2.359375 L 9.71875 0 L 1.21875 0 Z M 1.21875 -12.265625 "/></g></g></g><g fill="#c45a1a" fill-opacity="1"><g transform="translate(138.738144, 333.251609)"><g/></g></g><g fill="#c45a1a" fill-opacity="1"><g transform="translate(143.938659, 333.251609)"><g><path d="M 3.9375 -9.890625 L 0.265625 -9.890625 L 0.265625 -12.265625 L 10.25 -12.265625 L 10.25 -9.890625 L 6.5625 -9.890625 L 6.5625 0 L 3.9375 0 Z M 3.9375 -9.890625 "/></g></g></g><g fill="#c45a1a" fill-opacity="1"><g transform="translate(156.142454, 333.251609)"><g><path d="M 1.21875 -12.265625 L 3.859375 -12.265625 L 3.859375 -7.359375 L 8.765625 -7.359375 L 8.765625 -12.265625 L 11.390625 -12.265625 L 11.390625 0 L 8.765625 0 L 8.765625 -4.984375 L 3.859375 -4.984375 L 3.859375 0 L 1.21875 0 Z M 1.21875 -12.265625 "/></g></g></g><g fill="#c45a1a" fill-opacity="1"><g transform="translate(170.447191, 333.251609)"><g><path d="M 1.21875 -12.265625 L 9.546875 -12.265625 L 9.546875 -9.890625 L 3.859375 -9.890625 L 3.859375 -7.265625 L 9.203125 -7.265625 L 9.203125 -5.078125 L 3.859375 -5.078125 L 3.859375 -2.359375 L 9.71875 -2.359375 L 9.71875 0 L 1.21875 0 Z M 1.21875 -12.265625 "/></g></g></g><g fill="#c45a1a" fill-opacity="1"><g transform="translate(182.650986, 333.251609)"><g/></g></g><g fill="#f7f7f7" fill-opacity="1"><g transform="translate(188.378971, 333.251609)"><g><path d="M 1.21875 -12.265625 L 7 -12.265625 C 8.238281 -12.265625 9.175781 -11.957031 9.8125 -11.34375 C 10.445312 -10.738281 10.765625 -9.90625 10.765625 -8.84375 C 10.765625 -8.226562 10.613281 -7.691406 10.3125 -7.234375 C 10.007812 -6.773438 9.640625 -6.4375 9.203125 -6.21875 C 9.691406 -6 10.101562 -5.648438 10.4375 -5.171875 C 10.78125 -4.703125 10.953125 -4.117188 10.953125 -3.421875 C 10.953125 -2.359375 10.628906 -1.519531 9.984375 -0.90625 C 9.347656 -0.300781 8.414062 0 7.1875 0 L 1.21875 0 Z M 6.828125 -2.28125 C 7.316406 -2.28125 7.6875 -2.398438 7.9375 -2.640625 C 8.1875 -2.890625 8.3125 -3.234375 8.3125 -3.671875 C 8.3125 -4.117188 8.1875 -4.460938 7.9375 -4.703125 C 7.6875 -4.953125 7.316406 -5.078125 6.828125 -5.078125 L 3.859375 -5.078125 L 3.859375 -2.28125 Z M 6.65625 -7.1875 C 7.144531 -7.1875 7.515625 -7.304688 7.765625 -7.546875 C 8.015625 -7.796875 8.140625 -8.140625 8.140625 -8.578125 C 8.140625 -9.023438 8.015625 -9.367188 7.765625 -9.609375 C 7.515625 -9.859375 7.144531 -9.984375 6.65625 -9.984375 L 3.859375 -9.984375 L 3.859375 -7.1875 Z M 6.65625 -7.1875 "/></g></g></g><g fill="#f7f7f7" fill-opacity="1"><g transform="translate(201.720768, 333.251609)"><g><path d="M 6.484375 0.171875 C 5.609375 0.171875 4.8125 0.03125 4.09375 -0.25 C 3.382812 -0.53125 2.78125 -0.9375 2.28125 -1.46875 C 1.78125 -2.007812 1.390625 -2.671875 1.109375 -3.453125 C 0.835938 -4.234375 0.703125 -5.125 0.703125 -6.125 C 0.703125 -7.132812 0.835938 -8.03125 1.109375 -8.8125 C 1.390625 -9.59375 1.78125 -10.25 2.28125 -10.78125 C 2.78125 -11.320312 3.382812 -11.734375 4.09375 -12.015625 C 4.8125 -12.296875 5.609375 -12.4375 6.484375 -12.4375 C 7.359375 -12.4375 8.148438 -12.296875 8.859375 -12.015625 C 9.578125 -11.734375 10.1875 -11.320312 10.6875 -10.78125 C 11.1875 -10.25 11.570312 -9.59375 11.84375 -8.8125 C 12.125 -8.03125 12.265625 -7.132812 12.265625 -6.125 C 12.265625 -5.125 12.125 -4.234375 11.84375 -3.453125 C 11.570312 -2.671875 11.1875 -2.007812 10.6875 -1.46875 C 10.1875 -0.9375 9.578125 -0.53125 8.859375 -0.25 C 8.148438 0.03125 7.359375 0.171875 6.484375 0.171875 Z M 6.484375 -2.1875 C 6.929688 -2.1875 7.347656 -2.269531 7.734375 -2.4375 C 8.117188 -2.601562 8.453125 -2.847656 8.734375 -3.171875 C 9.015625 -3.492188 9.234375 -3.90625 9.390625 -4.40625 C 9.554688 -4.90625 9.640625 -5.476562 9.640625 -6.125 C 9.640625 -6.78125 9.554688 -7.351562 9.390625 -7.84375 C 9.234375 -8.34375 9.015625 -8.753906 8.734375 -9.078125 C 8.453125 -9.410156 8.117188 -9.660156 7.734375 -9.828125 C 7.347656 -9.992188 6.929688 -10.078125 6.484375 -10.078125 C 6.023438 -10.078125 5.601562 -9.992188 5.21875 -9.828125 C 4.832031 -9.660156 4.5 -9.410156 4.21875 -9.078125 C 3.9375 -8.753906 3.71875 -8.34375 3.5625 -7.84375 C 3.40625 -7.351562 3.328125 -6.78125 3.328125 -6.125 C 3.328125 -5.476562 3.40625 -4.90625 3.5625 -4.40625 C 3.71875 -3.90625 3.9375 -3.492188 4.21875 -3.171875 C 4.5 -2.847656 4.832031 -2.601562 5.21875 -2.4375 C 5.601562 -2.269531 6.023438 -2.1875 6.484375 -2.1875 Z M 6.484375 -2.1875 "/></g></g></g><g fill="#f7f7f7" fill-opacity="1"><g transform="translate(216.375659, 333.251609)"><g><path d="M 1.21875 -12.265625 L 3.859375 -12.265625 L 3.859375 -2.359375 L 9.453125 -2.359375 L 9.453125 0 L 1.21875 0 Z M 1.21875 -12.265625 "/></g></g></g><g fill="#f7f7f7" fill-opacity="1"><g transform="translate(227.879133, 333.251609)"><g><path d="M 1.21875 -12.265625 L 5.953125 -12.265625 C 6.804688 -12.265625 7.578125 -12.125 8.265625 -11.84375 C 8.953125 -11.5625 9.539062 -11.15625 10.03125 -10.625 C 10.519531 -10.101562 10.894531 -9.460938 11.15625 -8.703125 C 11.425781 -7.941406 11.5625 -7.082031 11.5625 -6.125 C 11.5625 -5.15625 11.425781 -4.289062 11.15625 -3.53125 C 10.894531 -2.78125 10.519531 -2.140625 10.03125 -1.609375 C 9.539062 -1.085938 8.953125 -0.6875 8.265625 -0.40625 C 7.578125 -0.132812 6.804688 0 5.953125 0 L 1.21875 0 Z M 5.875 -2.359375 C 6.289062 -2.359375 6.679688 -2.429688 7.046875 -2.578125 C 7.421875 -2.734375 7.742188 -2.96875 8.015625 -3.28125 C 8.296875 -3.601562 8.519531 -4 8.6875 -4.46875 C 8.851562 -4.945312 8.9375 -5.5 8.9375 -6.125 C 8.9375 -6.757812 8.851562 -7.3125 8.6875 -7.78125 C 8.519531 -8.257812 8.296875 -8.65625 8.015625 -8.96875 C 7.742188 -9.28125 7.421875 -9.507812 7.046875 -9.65625 C 6.679688 -9.8125 6.289062 -9.890625 5.875 -9.890625 L 3.859375 -9.890625 L 3.859375 -2.359375 Z M 5.875 -2.359375 "/></g></g></g><g fill="#c45a1a" fill-opacity="1"><g transform="translate(241.839905, 333.251609)"><g/></g></g><g fill="#c45a1a" fill-opacity="1"><g transform="translate(247.565796, 333.251609)"><g><path d="M 1.21875 -12.265625 L 6.3125 -12.265625 C 6.9375 -12.265625 7.515625 -12.15625 8.046875 -11.9375 C 8.578125 -11.726562 9.03125 -11.441406 9.40625 -11.078125 C 9.78125 -10.710938 10.070312 -10.269531 10.28125 -9.75 C 10.488281 -9.226562 10.59375 -8.664062 10.59375 -8.0625 C 10.59375 -7.4375 10.488281 -6.867188 10.28125 -6.359375 C 10.070312 -5.847656 9.78125 -5.40625 9.40625 -5.03125 C 9.03125 -4.664062 8.578125 -4.378906 8.046875 -4.171875 C 7.515625 -3.960938 6.9375 -3.859375 6.3125 -3.859375 L 3.859375 -3.859375 L 3.859375 0 L 1.21875 0 Z M 6.046875 -6.21875 C 6.660156 -6.21875 7.132812 -6.378906 7.46875 -6.703125 C 7.800781 -7.035156 7.96875 -7.488281 7.96875 -8.0625 C 7.96875 -8.632812 7.800781 -9.082031 7.46875 -9.40625 C 7.132812 -9.726562 6.660156 -9.890625 6.046875 -9.890625 L 3.859375 -9.890625 L 3.859375 -6.21875 Z M 6.046875 -6.21875 "/></g></g></g><g fill="#c45a1a" fill-opacity="1"><g transform="translate(260.557437, 333.251609)"><g><path d="M 1.21875 -12.265625 L 3.859375 -12.265625 L 3.859375 0 L 1.21875 0 Z M 1.21875 -12.265625 "/></g></g></g><g fill="#c45a1a" fill-opacity="1"><g transform="translate(267.333792, 333.251609)"><g><path d="M 6.484375 0.171875 C 5.609375 0.171875 4.8125 0.03125 4.09375 -0.25 C 3.382812 -0.53125 2.78125 -0.9375 2.28125 -1.46875 C 1.78125 -2.007812 1.390625 -2.671875 1.109375 -3.453125 C 0.835938 -4.234375 0.703125 -5.125 0.703125 -6.125 C 0.703125 -7.132812 0.835938 -8.03125 1.109375 -8.8125 C 1.390625 -9.59375 1.78125 -10.25 2.28125 -10.78125 C 2.78125 -11.320312 3.382812 -11.734375 4.09375 -12.015625 C 4.8125 -12.296875 5.609375 -12.4375 6.484375 -12.4375 C 7.253906 -12.4375 7.929688 -12.335938 8.515625 -12.140625 C 9.109375 -11.941406 9.625 -11.660156 10.0625 -11.296875 C 10.5 -10.941406 10.863281 -10.519531 11.15625 -10.03125 C 11.445312 -9.539062 11.671875 -9 11.828125 -8.40625 L 9.109375 -8.40625 C 9.003906 -8.65625 8.875 -8.878906 8.71875 -9.078125 C 8.570312 -9.273438 8.394531 -9.445312 8.1875 -9.59375 C 7.976562 -9.75 7.734375 -9.867188 7.453125 -9.953125 C 7.179688 -10.035156 6.859375 -10.078125 6.484375 -10.078125 C 6.023438 -10.078125 5.601562 -9.992188 5.21875 -9.828125 C 4.832031 -9.660156 4.5 -9.410156 4.21875 -9.078125 C 3.9375 -8.753906 3.71875 -8.34375 3.5625 -7.84375 C 3.40625 -7.351562 3.328125 -6.78125 3.328125 -6.125 C 3.328125 -5.476562 3.40625 -4.90625 3.5625 -4.40625 C 3.71875 -3.90625 3.9375 -3.492188 4.21875 -3.171875 C 4.5 -2.847656 4.832031 -2.601562 5.21875 -2.4375 C 5.601562 -2.269531 6.023438 -2.1875 6.484375 -2.1875 C 6.859375 -2.1875 7.179688 -2.226562 7.453125 -2.3125 C 7.734375 -2.394531 7.976562 -2.507812 8.1875 -2.65625 C 8.394531 -2.8125 8.570312 -2.988281 8.71875 -3.1875 C 8.875 -3.382812 9.003906 -3.609375 9.109375 -3.859375 L 11.828125 -3.859375 C 11.671875 -3.253906 11.445312 -2.707031 11.15625 -2.21875 C 10.863281 -1.726562 10.5 -1.304688 10.0625 -0.953125 C 9.625 -0.597656 9.109375 -0.320312 8.515625 -0.125 C 7.929688 0.0703125 7.253906 0.171875 6.484375 0.171875 Z M 6.484375 0.171875 "/></g></g></g><g fill="#c45a1a" fill-opacity="1"><g transform="translate(281.375909, 333.251609)"><g><path d="M 1.21875 -12.265625 L 3.859375 -12.265625 L 3.859375 -6.828125 L 8.234375 -12.265625 L 11.296875 -12.265625 L 6.390625 -6.21875 L 11.5625 0 L 8.5 0 L 3.859375 -5.609375 L 3.859375 0 L 1.21875 0 Z M 1.21875 -12.265625 "/></g></g></g></svg>